# xmcd CD database file
#
# Track frame offsets:
#	150
#	21288
#	41989
#	56654
#	75145
#	92533
#	112621
#	128146
#	140100
#	157778
#	174445
#	189747
#	208042
#	222147
#	238587
#
# Disc length: 3381 seconds
#
# Revision: 2
# Processed by: cddbd v1.5.2PL0 Copyright (c) Steve Scherf et al.
# Submitted via: CDex 1.51
#
DISCID=c20d330f
DTITLE=MILIONÁRIO E JOSÉ RICO - 1999-AO VIVO - VOL. 24
DYEAR=1999
DGENRE=Sertanejo
TTITLE0=LEVANDO A VIDA
TTITLE1=SONHEI COM VOCÊ
TTITLE2=DENGUINHO
TTITLE3=PÃO DE MEL
TTITLE4=TRIBUNAL DO AMOR
TTITLE5=TEMPESTADE DE PAIXÃO
TTITLE6=CORPO E ALMA
TTITLE7=INVERSÃO DE VALORES
TTITLE8=EU MENTI
TTITLE9=VIVA A VIDA
TTITLE10=JOGO DO AMOR
TTITLE11=VERMELHO LEITE
TTITLE12=VÁ PRO INFERNO COM SEU AMOR
TTITLE13=HERÓI DA VELOCIDADE
TTITLE14=ESTRADA DA VIDA
EXTD=YEAR: 1999
EXTT0=
EXTT1=
EXTT2=
EXTT3=
EXTT4=
EXTT5=
EXTT6=
EXTT7=
EXTT8=
EXTT9=
EXTT10=
EXTT11=
EXTT12=
EXTT13=
EXTT14=
PLAYORDER=
